<?xml version="1.0" encoding="UTF-8"?>
<!DOCTYPE svg PUBLIC "-//W3C//DTD SVG 1.1//EN" "http://www.w3.org/Graphics/SVG/1.1/DTD/svg11.dtd">
<!-- Creator: CorelDRAW X7 -->
<svg xmlns="http://www.w3.org/2000/svg" xml:space="preserve" width="8.5in" height="11in" version="1.1" style="shape-rendering:geometricPrecision; text-rendering:geometricPrecision; image-rendering:optimizeQuality; fill-rule:evenodd; clip-rule:evenodd"
viewBox="0 0 8500 11000"
 xmlns:xlink="http://www.w3.org/1999/xlink">
 <defs>
  <style type="text/css">
   <![CDATA[
    .fil0 {fill:#F6AA25}
   ]]>
  </style>
 </defs>
 <g id="Layer_x0020_1">
  <metadata id="CorelCorpID_0Corel-Layer"/>
  <g id="_796515024">
   <path class="fil0" d="M227 7159l772 -1c154,-208 22,-209 326,-292 169,-46 329,-92 497,-132 383,-92 345,-132 420,14l221 411 646 0c-62,-156 -816,-1571 -844,-1605 -39,44 -185,342 -225,422 -63,125 -39,118 -204,118 -109,0 -219,0 -328,1l660 -1316c26,-51 82,-150 94,-195 2,2 6,3 6,7 1,4 5,5 7,7l301 584c95,207 206,392 306,599l615 1202 1 -1432c1,-136 -42,-178 -136,-353 -40,-74 -72,-138 -106,-209 -35,-73 -75,-132 -112,-211l-438 -841c-110,-195 -228,-448 -328,-623 -23,-41 -95,-178 -107,-219 -50,43 -721,1411 -773,1515l-765 1522c-46,93 -488,952 -506,1027z"/>
   <path class="fil0" d="M7819 7158l110 -729c-265,-39 -939,35 -1232,-26 -289,-61 -565,-355 -579,-689 -8,-190 79,-356 167,-464 88,-107 196,-200 385,-242 136,-30 1055,-20 1250,-16l116 -726c-142,-14 -340,-3 -486,-3 -166,0 -333,0 -499,0 -353,1 -563,0 -857,140 -757,359 -1032,1296 -627,2004 261,457 697,736 1251,750 325,8 675,8 1001,1z"/>
   <path class="fil0" d="M6006 7091l-36 -29c-192,-131 -412,-328 -512,-534 -19,-39 -30,-68 -57,-101l-993 -2c6,-212 16,-2122 -9,-2159 7,349 2,719 1,1076 -1,204 12,950 -4,1085l-1 -2151 -726 4 3 2866 2391 -3 -45 -39c-1,-1 -4,-5 -6,-6 -1,-2 -4,-5 -6,-7z"/>
  </g>
 </g>
</svg>
